HIERARCHY
ROOT HipCenter
{
    OFFSET 0.0 0.0 -0.0
    CHANNELS 6 Xposition Yposition Zposition Zrotation Xrotation Yrotation
    JOINT Spine
    {
        OFFSET 0.0 11.126236915588379 0.0
        CHANNELS 3 Zrotation Xrotation Yrotation
        JOINT ShoulderCenter
        {
            OFFSET 0.0 30.907075881958008 0.0
            CHANNELS 3 Zrotation Xrotation Yrotation
            JOINT LeftShoulder
            {
                OFFSET 18.519453048706055 0.0 0.0
                CHANNELS 3 Zrotation Xrotation Yrotation
                JOINT LeftElbow
                {
                    OFFSET 24.317726135253906 0.0 0.0
                    CHANNELS 3 Zrotation Xrotation Yrotation
                    JOINT LeftWrist
                    {
                        OFFSET 27.573814392089844 0.0 0.0
                        CHANNELS 3 Zrotation Xrotation Yrotation
                        JOINT LeftHand
                        {
                            OFFSET 2.755006790161133 0.0 0.0
                            CHANNELS 3 Zrotation Xrotation Yrotation
                            End Site
                            {
                                OFFSET 1.102002739906311 0.0 0.0
                            }
                        }
                    }
                }
            }
            JOINT RightShoulder
            {
                OFFSET -18.519453048706055 0.0 0.0
                CHANNELS 3 Zrotation Xrotation Yrotation
                JOINT RightElbow
                {
                    OFFSET -24.317726135253906 0.0 0.0
                    CHANNELS 3 Zrotation Xrotation Yrotation
                    JOINT RightWrist
                    {
                        OFFSET -27.573814392089844 0.0 0.0
                        CHANNELS 3 Zrotation Xrotation Yrotation
                        JOINT RightHand
                        {
                            OFFSET -2.755006790161133 0.0 0.0
                            CHANNELS 3 Zrotation Xrotation Yrotation
                            End Site
                            {
                                OFFSET -1.102002739906311 0.0 0.0
                            }
                        }
                    }
                }
            }
            End Site
            {
                OFFSET 0.0 12.362829208374023 0.0
            }
        }
    }
    JOINT LeftHip
    {
        OFFSET 21.54745864868164 0.0 0.0
        CHANNELS 3 Zrotation Xrotation Yrotation
        JOINT LeftKnee
        {
            OFFSET 0.0 -35.14631652832031 0.0
            CHANNELS 3 Zrotation Xrotation Yrotation
            JOINT LeftAnkle
            {
                OFFSET 0.0 -39.29071044921875 0.0
                CHANNELS 3 Zrotation Xrotation Yrotation
                JOINT LeftFoot
                {
                    OFFSET 0.0 -9.145967483520508 0.0
                    CHANNELS 3 Zrotation Xrotation Yrotation
                    End Site
                    {
                        OFFSET 0.0 0.0 3.6583869457244873
                    }
                }
            }
        }
    }
    JOINT RightHip
    {
        OFFSET -21.54745864868164 0.0 0.0
        CHANNELS 3 Zrotation Xrotation Yrotation
        JOINT RightKnee
        {
            OFFSET 0.0 -35.14631652832031 0.0
            CHANNELS 3 Zrotation Xrotation Yrotation
            JOINT RightAnkle
            {
                OFFSET 0.0 -39.29071044921875 0.0
                CHANNELS 3 Zrotation Xrotation Yrotation
                JOINT RightFoot
                {
                    OFFSET 0.0 -9.145967483520508 0.0
                    CHANNELS 3 Zrotation Xrotation Yrotation
                    End Site
                    {
                        OFFSET 0.0 0.0 3.6583869457244873
                    }
                }
            }
        }
    }
}
MOTION
Frames: 4
Frame Time: 0.03333333333333333
13.40000057220459 -9.5 3.5 12.022277464131452 9.25841369303928 -118.08568232564313 11.093183567642635 -10.002974891688627 0.898293446020422 -3.4815435168815176e-07 -6.584634325782754e-08 -3.6473650223211633 99.30453899224806 -27.742655074419158 178.02773378875833 3.915683785098847e-06 -7.29752351353807e-06 57.525344184220856 -179.99999110039286 -74.64576388143087 -145.29224696345887 3.1805546814635168e-15 -2.2069531490250793e-32 -7.951386703658792e-16 -131.16210190155797 -54.761774813683154 162.16652685942395 -1.2597064527916725e-06 5.464317221124229e-06 -52.80499653736937 1.289613994194193e-05 -80.10386258017567 -16.573245906603663 0.0 0.0 -3.1805546814635164e-15 -2.0422403711254695 -61.76860124230532 -5.981524837187867 -18.314743216982563 78.90780259336042 -12.407134793326863 -168.06112742071622 75.54348649510335 166.08555190490603 -3.578124016646457e-15 6.3611093629270335e-15 1.9862578341225716e-31 15.613774808605472 -53.091852499607256 12.232468585739351 74.72759724731723 66.34986920936088 -43.68971325356359 -45.36093825914127 -25.29964084787827 -13.079243372163026 0.0 0.0 1.6896696745274934e-15
13.199999809265137 -9.399999618530273 3.4000000953674316 12.642151164465968 9.82976731035282 -118.15729291936246 11.969829631183003 -9.600082015539854 0.9818147093058823 -1.4920204509428016e-07 5.746077710187077e-08 -3.859279559719819 99.16211522556331 -27.110499071135838 178.29878368138654 -3.680224281656942e-06 -1.9136883291831687e-06 57.500485130957884 179.9999954872121 -77.23798585401575 -147.61473977650687 3.578124016646456e-15 -3.1805546814635164e-15 3.975693351829395e-15 -132.73887258836157 -54.997636742515176 160.6529923441071 7.850398678899258e-06 1.9654997036096584e-07 -53.05475082274155 -2.3611044519491637e-05 -84.62162472844896 -16.337305501717754 6.3611093629270335e-15 0.0 0.0 -1.6266850869631304 -62.045216883371744 -5.560648674241916 -14.386205520795784 79.14649087921585 -16.436799395094706 -164.2438370834216 77.54897936053956 161.55177687613082 -3.1805546814635164e-15 6.3611093629270335e-15 -6.3611093629270335e-15 17.029250042190657 -52.86104495142552 13.23807477001296 74.10279070195435 66.09228740943773 -43.66772783556701 -45.298152106405915 -25.72390282042391 -13.143243249366414 0.0 0.0 -1.5902773407317584e-15
13.0 -9.399999618530273 3.299999952316284 12.642155313588113 9.82976951045827 -117.9958714699847 11.852787254277246 -8.636121757076836 0.8463295667634824 -1.6156749627236027e-07 -1.6622528160033172e-08 -4.093412297490159 99.26688005724237 -26.818605255196502 178.54555257893654 2.378104976173956e-06 -5.2219939092111475e-06 57.97631165243675 -179.99997890992336 -72.66578247010621 -145.73146386894214 4.373262687012335e-15 -3.1805546814635168e-15 7.951386703658794e-16 -133.59781911255953 -54.7933687524368 159.75346635572987 3.80765109251528e-06 -1.2131045710433758e-06 -53.383893483411875 -1.016413435333835e-05 -81.26347835746829 -17.320038351500965 0.0 0.0 3.1805546814635168e-15 -1.6273510630729902 -62.03324861394255 -5.472568287277764 -13.89432586610534 79.2104181857379 -16.97802639972454 -166.49906829559762 78.33450339698702 163.64000934733727 1.9878466759146976e-15 -6.361109362927033e-15 1.1034765745125397e-31 17.061256868037013 -52.85133707637748 12.968915489765909 74.60787632919428 66.59976711458688 -44.25877531009623 -44.94938044712268 -26.20923247023777 -13.292940963296344 0.0 0.0 2.087239009710433e-15
12.899999618530273 -9.399999618530273 3.200000047683716 13.150942539656603 10.315698927108407 -117.91696852192804 12.736263422547644 -8.55395171092179 0.8754256168041586 9.900564181767591e-09 2.701524060884389e-07 -4.405033436048528 99.3420643041073 -26.722413781736943 178.7510920125622 1.2312140893891408e-06 -5.773350506183562e-06 58.01780439281846 179.9999940320412 -79.56416335621766 -146.41691533529166 7.951386703658792e-16 -1.1034765745125397e-32 -1.5902773407317584e-15 -134.8008589043739 -55.07195488606525 158.79458202378794 2.6099460030194606e-08 2.055501011227145e-09 -53.12740487949745 -5.251297491714371e-07 -75.64363913266668 -16.59728256919942 0.0 0.0 0.0 -1.2389392523427742 -61.88344191928713 -5.974139693330322 -15.074973921325268 78.76100945994523 -15.551737963756741 -162.4757352609942 76.68478333326333 159.9345084429107 3.975693351829395e-15 0.0 0.0 17.882201011898562 -52.179936046292426 13.655199862377577 73.15283091126541 66.08130480047261 -42.8357759422799 -46.75447651059954 -27.26378633835564 -14.79910824529862 0.0 0.0 2.6835930124848418e-15
